<svg xmlns="http://www.w3.org/2000/svg" viewBox="0 0 600 300"><g><text x="50%" y="0" style="fill: rgb(54, 58, 61); dominant-baseline: text-before-edge; text-anchor: middle; font-weight: bold; font-size: 13px; font-family: sans-serif;">epoch_avg_loss</text></g><g transform="translate(0, 22)"><svg class="rv-xy-plot__inner" width="600" height="278"><g transform="translate(34,5)" class="rv-xy-plot__grid-lines"><line y1="243" y2="243" x1="0" x2="546" class="rv-xy-plot__grid-lines__line" style="stroke-width: 0.5;"/><line y1="198.77316210951997" y2="198.77316210951997" x1="0" x2="546" class="rv-xy-plot__grid-lines__line" style="stroke-width: 0.5;"/><line y1="154.54632421903995" y2="154.54632421903995" x1="0" x2="546" class="rv-xy-plot__grid-lines__line" style="stroke-width: 0.5;"/><line y1="110.31948632855996" y2="110.31948632855996" x1="0" x2="546" class="rv-xy-plot__grid-lines__line" style="stroke-width: 0.5;"/><line y1="66.09264843807993" y2="66.09264843807993" x1="0" x2="546" class="rv-xy-plot__grid-lines__line" style="stroke-width: 0.5;"/><line y1="21.86581054759994" y2="21.86581054759994" x1="0" x2="546" class="rv-xy-plot__grid-lines__line" style="stroke-width: 0.5;"/></g><path d="M0,0L0.21763776169972143,3.4815148234277125L0.27584320959615855,6.3240902150987415L0.4732355981145106,11.582622717740575L0.8503056736175163,19.420936786490167L0.9515325395243635,20.90191762181411L1.2020690326438104,25.285040594207434L1.5335870184887348,28.40709634230007L1.5842004514421584,28.674708639942796L1.9688625418881776,31.974059774654883L2.0776814227380385,32.882586699044715L2.3864233637539223,35.420111534439215L2.7154106779511755,37.03375062294474L2.852066946925419,37.247598463349746L3.191176947713357,38.85814857359943L3.2417903806667807,39.33036429764584L3.2468517239621235,39.33178402802223L3.6846579190092377,41.96393254593289L3.737802023610332,42.33180144817311L4.094626725931969,44.05349579308208L4.745009339383461,46.42563128317504L5.210652922554958,48.23912864676987L6.238105611509457,50.94007380032871L6.293780387758224,50.93216392465352L6.529132850991644,51.557025541959455L7.230128897396559,53.53252694588869L7.252904942225601,53.5630422649367L7.2579662855209435,53.56799525308871L7.283273001997655,53.646128692100845L8.257581586351058,56.45159698797785L9.176215394455697,58.7019100836291L9.196460767637067,58.694765060504906L9.414098529336789,59.00515880219544L9.925294202166366,60.09399272600096L10.246689501420605,60.488775207749576L10.327670994146084,60.50701236220767L10.970461592654564,61.52942914687167L11.787868534852354,62.58052575460092L11.813175251329065,62.57395238877024L12.714094357900006,64.20245146935966L13.28096480697835,64.84826146950925L13.323986224988762,64.92898166868372L13.706117643787108,65.37624478656164L13.984491525030938,65.9552087948391L14.217313316616687,66.14919247430409L14.26539607792244,66.27231253730895L14.280580107808467,66.32030102154334L15.032189587166807,67.23159375082628L15.14860048295968,67.375892520185L16.32536279912678,68.95945988293755L16.68977951639143,69.37282439451742L16.7100248895728,69.39331426866681L17.565391906485658,70.61648039971871L17.580575936371687,70.64997981316927L17.995606086589756,71.05201874012143L18.762399595834125,72.03944227012184L19.03571213378261,72.32224070194391L19.574745194736572,72.83344554899385L19.997367359897662,73.20527985550584L20.045450121203412,73.2635095574369L20.220066464892724,73.52296508187987L21.012166690613807,74.32341404393613L21.399359452707493,74.72406426292123L21.804266916334885,75.17030341752717L21.806797587982555,75.18213036629392L22.474894902967748,75.76434924525476L22.768452814097603,76.0309893297039L23.27205647198417,76.42830378322874L23.27458714363184,76.43482156804212L23.46438751720718,76.58025577844369L23.537776994989642,76.63566033752356L23.66177990572553,76.78268775169329L23.66937192066854,76.78643876028165L23.821212219528814,76.93128986121638L24.13754617548771,77.21189884730627L24.28432513105264,77.32016301627453L24.88662498319838,77.81562909271473L24.901809013084407,77.84395914724564L24.939769087799473,77.86459945089835L24.947361102742487,77.8804202114546L25.243449685520016,78.14682387422248L25.85840289590411,78.61601023066159L26.20004356833972,78.96317690490653L26.982021107470114,79.67919916017563L27.412235287574216,80.10414764230843L27.495747451947366,80.14329233740862L27.85510282591667,80.46587701901251L28.58393626044597,81.01705325602403L28.64467237999008,81.06758205776106L29.074886560094182,81.35982281783593L29.163460067762674,81.43632973774632L29.168521411058013,81.43967490365378L29.3633831279287,81.52503171541012L30.003643054789507,81.90666668479581L30.42120387665525,82.25467048287813L30.555329473981825,82.40662440470139L30.686924399660725,82.49352048338818L31.079178505049757,82.77666044297631L31.268978878625095,82.94485393974881L31.30187761004482,82.96549401040275L31.473963282086462,83.10845402470397L31.590374177879333,83.17935811180439L32.11928455224261,83.4187399919764L32.15724462695768,83.44158351331608L32.283778209341236,83.54630596466612L32.688685672968624,83.85364107617872L33.54911403317683,84.34566612083044L33.58201276459655,84.37755783565423L33.630095525902306,84.38105370150049L33.971736198337915,84.67094993298126L34.27794746770613,84.91050267867605L35.79128911301349,86.01678375268064L35.877331949034314,86.09254900127247L36.143052472039784,86.2599056180391L36.22656463641293,86.31255183342556L36.38093560692087,86.34507673334835L37.32993747479757,86.91389839824159L37.347652176331266,86.92741409271741L37.81076508785509,87.19153488701376L37.922114640352625,87.23926910457766L39.90363054047916,88.30119917857938L40.20478046655202,88.45272454310044L40.381927481889015,88.5483675899296L40.59197322864571,88.66645752319484L41.12341427465667,88.89477356517149L41.513137708398034,89.15778754299843L41.621956589247894,89.20580660582122L41.95600524674048,89.40460195405602L42.28499256093774,89.57583498207742L42.892353756378824,89.93225416876035L43.41114144415141,90.22470410105231L43.52502166829662,90.29078755928323L43.56804308630703,90.31018248937852L43.61612584761278,90.34331039757197L44.80048017872289,90.91022464690927L45.21804100058864,91.08270480486023L46.04303995772944,91.41824123269396L46.33659786885929,91.57809323367013L46.8984069746423,91.80188116281093L46.95661242253873,91.81612661811587L47.19955690071517,91.97578359021603L47.498176155140364,92.11253766912716L49.70239116026197,93.11246620019045L49.788433996282784,93.14909568805193L50.05162384764059,93.24909111937822L50.54004347564113,93.47542517133141L50.912052207848795,93.6971550626938L50.9905030289266,93.75834952912786L51.44096258221207,93.9833715991698L51.577618851186315,94.05987341456083L51.71174444851289,94.09984987062133L52.243185494523836,94.3597535705296L52.31151362901095,94.39110362562487L52.339351017135336,94.40239352193619L52.587356838607114,94.46024660616128L53.20990206393422,94.73352929207589L53.41741713904326,94.8145740115139L53.5895028110849,94.90171796662163L53.59709482602791,94.90352854046262L53.670484303810376,94.93835106178736L53.70085236358243,94.9587972287812L55.14839654605035,95.62953405373364L55.39387169587445,95.72198859482585L55.856984607398275,95.91867832483757L55.88482199552266,95.93901141299769L56.03160095108759,95.9946061850525L58.00552483627111,96.68327937170285L58.073852970758225,96.72000515886873L58.349696180354385,96.84060029485775L58.54708856887274,96.91475660514641L59.27592200340204,97.14914643949767L59.602378645951624,97.23507563484728L60.00222476628367,97.38984042512807L60.4299082747401,97.60900603957364L60.45015364792147,97.61455423189781L60.80191700694776,97.7154973788105L61.55605715795377,98.05212338976601L61.57630253113514,98.0603753805056L61.586425217725825,98.07081291939781L61.9837406664102,98.22994456593871L62.27476790589239,98.31791375396799L63.77545619296139,98.77919098519756L63.88174440216359,98.82223388177684L65.67345992871478,99.3625070780709L66.02269261609341,99.48492361580013L66.04546866092245,99.49367405881951L66.05053000421779,99.49618684661655L66.28841313909888,99.57932411472062L66.57944037858107,99.67404989107051L66.58703239352408,99.67580859279273L67.0071238870375,99.80047800354629L67.01977724527585,99.80592766657907L67.71065060509008,100.0668192207579L68.042168590935,100.15310191136506L68.3762172484276,100.26792746452038L68.57614030859362,100.33070544308251L68.60903904001334,100.34388097517511L68.7102659059202,100.37540218457882L69.34040314619031,100.53757610595407L69.53020351976566,100.57269946040316L70.45896001446098,100.88904590906671L70.5272881489481,100.89494968678156L71.0536678516637,101.06248349351657L71.52690344977822,101.1364492320104L71.53955680801657,101.13782597397135L71.5800475543793,101.14277718267701L71.9318109134056,101.26177498138448L72.39998516822477,101.41051522386473L72.4581906161212,101.41566635718209L72.62774561651518,101.46795151754947L72.70366576594532,101.485615344563L72.93901822917874,101.55272688117017L73.46539793189434,101.69342902614439L74.23219144113871,101.9524489829417L74.50297330743953,102.01979205944318L74.91294211436225,102.12189506055232L75.02682233850746,102.14221433684445L75.22674539867349,102.18812217934169L75.46715920520225,102.24672982012353L75.83663726576223,102.37328110880571L75.93533346002141,102.38699994005255L76.02896831098523,102.42840998185784L76.1656245799595,102.46177773720989L77.31454950800222,102.78030099075087L77.66378219538082,102.90105639586285L77.8333371957748,102.95122722291477L77.99783085287342,103.00758109336046L78.86585122802464,103.284507714412L79.19989988551724,103.37579911999697L79.92620264839887,103.55047253368629L80.02489884265805,103.58182695342326L80.29821138060653,103.66046187336202L81.48003504006897,103.96301678478108L82.74790153555223,104.29275119961996L82.86684310299277,104.31355136348697L82.88961914782182,104.31890426704535L83.11991026775989,104.3937195379683L83.30717996968755,104.42625939036151L83.59061519422673,104.51034524733136L83.8133142992218,104.5732507671219L83.95250123984371,104.59986452485832L84.03854407586454,104.60979631998917L84.0410747475122,104.60898740516733L84.35993937511877,104.70591700321972L84.42320616631055,104.71659429663916L84.77496952533684,104.7734808925498L85.12420221271546,104.85377513358742L85.6657659453171,104.99743265585967L85.88087303536915,105.0432796013444L86.48064221586722,105.20164204250388L86.89820303773297,105.29992566269154L87.89022632362007,105.5024978965621L88.22427498111266,105.59452317062792L89.09482602791155,105.81105308995794L90.00839849272084,106.0132333710258L91.47112670507478,131.79567332154613L91.51920946638053,131.91113753161935L91.59766028745835,132.57283212640255L91.73178588478493,130.85772852524764L92.41253655800847,130.65368164658997L92.86299611129394,131.1405289267229L93.19451409713885,131.3149149494359L93.57158417264186,130.81268814592468L93.57411484428954,130.79936910245115L93.62219760559529,130.88940352745985L93.77403790445555,130.61365380749967L94.77365320528567,130.35147371898543L95.332931639421,130.26222819339327L95.71506305821936,130.09256061086268L95.95800753639578,130.1456815028421L95.9934369394632,129.99728316863133L96.40846708968125,130.30859016085802L96.41858977627194,130.26603574758505L96.47426455252071,130.1816995912742L97.23599671846972,130.64365973903597L97.28914082307084,130.65800253626097L97.40302104721603,130.60910598716265L98.4937405273623,130.9293398362063L99.20232858871023,130.6713739950567L99.34404620097983,130.6714075647834L100.66758747271184,130.70178948846885L100.71313956236993,130.7169036206463L101.0750256079869,130.6738980500587L101.23951926508553,130.7521249588962L101.28001001144827,130.7641093999448L101.62671202717922,130.60107618172515L101.70263217660937,130.56178614402205L101.74059225132443,130.57763926779666L102.52510046210249,130.4810026602717L103.12486964260057,130.3717683227003L103.79549762923344,130.25616749209482L104.15991434649807,130.34685796844792L104.81029695994957,130.50674066396533L104.94695322892382,130.54039050614517L105.31896196113148,130.51209893460896L105.44043420021968,130.58666123863148L106.20722770946406,131.0668350059199L106.76650614359939,131.22386440287082L107.38652069727884,131.2761514740185L107.76106010113416,131.27302165556642L108.42915741611937,131.21784539357003L108.94794510389195,131.43927152266374L108.99096652190235,131.42784928953603L109.09978540275223,131.3411362082417L109.43130338859714,131.24501618478524L109.4971008514366,131.23772256591562L109.52493823956098,131.19619328139123L109.98045913614179,131.27724169812888L110.23858764420424,131.3584762412586L110.78268204845357,131.4296837755931L110.91680764578014,131.40537929082225L112.12646869336695,131.60947441247603L112.24541026080749,131.62422126816801L112.38459720142941,131.58925714641893L112.76925929187543,131.63891653935886L113.19947347197953,131.80872505476432L113.4398872785083,131.80687437813936L113.67017839844637,131.86214402175486L114.19908877280965,132.02671601513012L114.34839840002225,132.12300598614814L114.396481161328,132.11968143258088L114.76342855024032,132.14941185015746L115.08482384949455,132.1754144593895L115.89970012004467,132.19115627630165L115.94525220970276,132.18533169537406L116.67661631587973,132.21766348037698L116.69686168906111,132.1891888321115L117.09923848104083,132.26900216184848L117.74455975119697,132.33641029260247L118.16465124471038,132.435850423134L118.70115363401668,132.43808903006524L118.78213512674215,132.43265055402577L119.24271736661831,132.41731624291072L119.30851482945776,132.4208818922949L120.16641251801829,132.51437226283178L120.59409602647472,132.5287766015688L121.09263834106595,132.5232400780398L121.33811349089004,132.64077741520302L121.64685543190593,132.61367802849335L121.95559737292182,132.70391012267564L121.98090408939852,132.68762352591855L121.99102677598921,132.69633762615402L122.56042789671523,132.7675007631183L122.77300431511959,132.77749286761187L124.67606939416832,133.0372152926932L124.87852312598201,133.04595945247118L124.93925924552613,133.06152641034888L125.73642081454256,133.15032926183554L125.89585312834585,133.1497904072931L126.39692611458473,133.2153054349767L126.55635842838802,133.20485298970078L127.24723178820226,133.26549997951616L127.58128044569484,133.24470859452842L128.0772920886384,133.28971572839956L128.70236798561317,133.38740981666206L128.7782881350433,133.38616831811953L128.84661626953044,133.38558107968544L129.13511283736494,133.39906207524012L129.2894838078729,133.38989477228122L129.56532701746906,133.35646079262887L129.64630851019453,133.3434661378171L130.7901720949419,133.3482141586144L131.1065060509008,133.37291232445327L131.2026715735123,133.3908025160158L131.5367202310049,133.36526200357648L131.81256344060105,133.36986333215538L132.60466366632212,133.42620500235248L133.5283588177221,133.5747114316523L134.94300426877032,133.75580996710565L135.20113277683276,133.7833035818459L135.56301882244975,133.80121987679487L135.73763516613906,133.81874857054822L136.28172957038836,133.88615438786536L136.48418330220204,133.89831343557086L136.49430598879275,133.8986831605319L137.0510537512804,133.96135838910536L137.06876845281408,133.96088474509526L137.12444322906288,133.95151113408642L137.60020949882505,133.97932857594003L138.1569572613127,134.00826059226785L138.37206435136474,134.01461813254832L138.97689487515817,134.01081567195516L139.16922592038117,134.06139994329132L139.4222930851483,134.08917232848887L140.41937771433072,134.12565060366748L140.4927671921132,134.11078867722662L140.52313525188526,134.12001331191624L141.08241368602057,134.17933860762406L141.62903876191754,134.25279826514156L141.84920719526494,134.26967504019643L141.9504340611718,134.2735504450313L142.50971249530716,134.27068542489894L143.65104540840684,134.35999172957582L143.95472600612737,134.36018567031448L144.1647717528841,134.36966854767903L144.33685742492574,134.4191352406328L144.79237832150653,134.43071071377807L145.3415340690512,134.47643189958703L145.7084814579635,134.48775609924996L146.70556608714594,134.52605383228737L146.96116392356075,134.49329180651029L146.99659332662813,134.49896900254788L147.3508873573021,134.52213860590652L147.7557948209295,134.53741315224713L147.89245108990374,134.56490582662352L148.35556400142755,134.58130343361796L148.49475094204948,134.59442445042507L149.0641520627755,134.63461716084558L149.5551023624237,134.66715634069763L150.23332236399958,134.7016239174733L150.31683452837274,134.71536088578338L150.41046937933655,134.70230453031024L150.67112855904668,134.71027517714955L150.76982475330587,134.71964395780748L151.00011587324394,134.7338249707844L151.22787632153435,134.75709239091017L151.2658363962494,134.75836069825203L151.2683670678971,134.75748892354727L151.84282953191845,134.80923833981745L152.11614206986695,134.81238681396317L152.28569707026088,134.84772354761648L152.29835042849925,134.8441188875017L152.42994535417816,134.83022906568232L152.76146334002308,134.85098366679287L153.03983722126694,134.85645206819913L153.17649349024117,134.86960976828615L153.66744378988935,134.94203892314138L153.92810296959948,134.9358269962182L154.0596978952784,134.94383093446362L154.3051730451025,134.96385453642296L154.3659091646466,134.9700036926207L154.55824020986964,135.0097867851344L154.770816628274,135.0124845141458L154.96061700184933,135.02936362572694L155.42372991337317,135.06314341399147L155.71475715285533,135.10557148197233L155.77043192910412,135.10961327889086L155.91974155631672,135.13518800460722L156.88139678243178,135.19964286141428L158.01766835223611,135.3285030564236L158.08599648672325,135.32407535424886L158.45294387563558,135.35423040754173L159.49811126612374,135.40068076362826L159.61199149026896,135.4238389333603L160.5837694029747,135.49396565964L160.67740425393853,135.4980322700897L161.42901373329687,135.5483332450785L161.74787836090346,135.5520245222929L161.81114515209524,135.5516637370499L161.89465731646837,135.5646224987659L162.13254045134946,135.5844485105472L162.69434955713248,135.64979928960847L163.08154231922617,135.66737101490156L163.65347411159985,135.74127206472832L163.68637284301957,135.7412000442593L163.69396485796258,135.7409575800424L163.73951694762064,135.73978506614873L164.32663276988038,135.80629470707555L164.52908650169408,135.81233091289212L164.56957724805682,135.81139652649543L164.77962299481354,135.82129634249978L165.03522083122832,135.85322813065517L165.4046988917883,135.90060691707075L166.37141546119867,135.94994151280318L167.12555561220472,136.0160780906604L167.55576979230878,136.05435589817225L168.1606003161022,136.08774533567257L168.24664315212303,136.08600665744677L169.2158903931811,136.15777672218186L169.75745412578274,136.2049192863667L170.15223890281942,136.21626267825735L170.3369779330994,136.20892350274244L170.86841897911037,136.23248444766477L170.88613368064406,136.23272465989038L171.06075002433337,136.24779644158414L171.13160883046817,136.25378219170088L171.1746302484786,136.2674764599222L171.62508980176403,136.31213698637558L171.87309562323586,136.32728536923017L172.01987457880077,136.33303592304839L172.18689890754706,136.34873172417835L172.41212868418978,136.3655039270593L173.25990368615965,136.39486576309008L173.5812989854139,136.430709570719L174.13551607625388,136.47074571938143L174.1760068226166,136.47828886586956L175.62102033343683,136.57501870103525L175.87408749820398,136.58104233782393L176.03351981200726,136.599964358987L176.66618772392505,136.62567335135964L176.71933182852615,136.6338317199198L176.83321205267134,136.63306967423102L176.84080406761436,136.63606080054024L176.92684690363518,136.6314805172153L177.2507728745371,136.64847586956083L178.23014280218584,136.69930783720375L179.01212034131623,136.75268262786344L179.1108165355754,136.75271866222846L179.93834616436388,136.75131084396133L180.19647467242635,136.76893982279347L180.26480280691348,136.77334804506455L180.930369450251,136.77442560508385L181.06702571922523,136.78143782905863L181.12776183876935,136.7809243517794L181.70222430279068,136.81897916850357L181.87177930318467,136.82384621598658L182.4285270656723,153.327083669199L182.61073542430466,151.1280046285988L182.7980051262323,147.99106154236625L183.5116545308756,144.9480003326375L183.61794274007778,144.7164359648026L183.6963935611556,144.4962774454195L184.54669923477311,145.72657208548242L184.83772647425528,145.83204416268026L185.3970049083906,145.7904645199587L185.48051707276377,145.70487359510392L185.98159005900266,145.52966469992145L186.85214110580156,145.06337678814674L188.5578137963319,144.8081057799569L188.7982276028607,144.9495624304349L189.04876409598012,144.70939689849627L190.0787474565823,144.9408314667524L190.2609558152146,144.8246251551811L190.37230536771216,144.76389279837954L192.38165865596307,144.78665356562803L192.64737917896855,144.64520405874433L193.00926522458553,144.71621343127677L193.7836507487729,144.74351242854414L193.82414149513565,144.74583301624716L194.45427873540575,144.88707168991237L194.8718395572715,144.8282898765642L195.27421634925125,144.89018661464854L195.76516664889942,144.81704333670896L195.8537401565679,144.69078176671218L197.01025709955366,144.71400032861337L197.40251120494267,144.69030508476803L197.72390650419692,144.69947484613002L198.30089963986597,144.73831494684183L198.61976426747253,144.8102754990608L200.2216794204484,145.02998746667828L200.83157128753714,145.07072253140404L201.63632487149658,145.2370341729697L201.88180002132066,145.169213239431L202.24368606693767,145.15801487579122L202.63594017232668,145.12614667672784L203.56469666702202,145.09936898814354L203.99238017547844,145.17005857192464L204.01262554865983,145.19567548859874L204.14928181763406,145.16508117345572L204.16699651916775,145.16449688016428L204.2935301015513,145.1815208034602L204.34920487780008,145.15242298455422L204.55418928126144,145.17808954101397L204.79713375943788,145.1966988766431L204.8300324908576,145.20291615362217L205.12612107363515,145.22998704458877L205.67021547788443,145.21695300625063L205.72335958248553,145.19334150427485L205.7258902541332,145.19651257366928L206.60150264422742,145.25098988279515L207.01400212279785,145.14597433820992L207.0620848841036,145.13244522331593L207.25188525767894,145.10942917200708L207.87443048300602,145.1183422305875L208.02374011021863,145.0694395572689L208.10219093129643,145.0764389358325L208.78800294781533,145.15391211806045L209.47887630762958,145.21101202907747L209.52695906893533,145.20315581996465L209.67373802450024,145.19725196272265L210.1520349659101,145.17355660319L210.39497944408652,145.2044719319389L210.5189823548224,145.22807520664173L210.76192683299882,145.27659824979273L211.1440582517972,145.32717863933968L211.65525392462675,145.37194078003284L213.0395313159029,145.48033812423262L213.9961251987226,145.60211231067285L214.16821087076423,145.57338540248435L214.20617094547933,145.56016092334684L214.30486713973852,145.56059901296348L214.6313237822881,145.58352458068606L215.03370057426778,145.52995397171273L215.30701311221628,145.54781496002244L215.3930559482371,145.56145067301208L215.39811729153246,145.55669533109383L215.58032565016475,145.60388862146365L215.66889915783327,145.61220628940657L215.89919027777134,145.62747571269526L216.00294781532585,145.6135738343788L219.35608774849015,145.77181187425L219.51045871899814,145.7628305437469L219.9432035707499,145.76019471840664L220.63913827385946,145.82630552582987L220.92004282675097,145.87577113369346L221.12755790186,145.87023229822782L221.13514991680302,145.86982704964484L221.35025700685506,145.8855206567294L221.70202036588137,145.88954954235052L221.9272501425241,145.9142769240218L222.23093074024464,145.9549040573264L222.60800081574766,145.93234732663086L223.8682752962879,145.88607761613721L224.0504836549202,145.91675752056102L224.22003865531417,145.92664640956272L224.42502305877554,145.9202300810394L224.87042126876568,145.9474954789919L224.91344268677608,145.9444818724194L225.04503761245496,145.96549987148376L225.05516029904567,145.9502179652612L225.27026738909774,145.9494264745335L225.54611059869387,145.95876269951L225.99657015197937,145.99935352137442L226.21167724203139,145.99294339910645L226.38123224242537,145.99807658991435L226.48245910833222,145.98166645057213L226.5356032129333,145.99156730715163L227.00883881104784,146.07827738915566L227.2821513489963,146.1294356253313L227.59595463330754,146.18775832031L228.07172090306972,146.21905480511063L228.0919662762511,146.21810267390623L228.19319314215792,146.19146962569238L228.35768679925656,146.16029260305038L229.29150463724721,146.19706303986646L230.1266262809787,146.2626452863581L231.3312259852702,146.23067136604945L231.8322989715091,146.24734285405174L232.68007397347893,146.24450940719214L233.39625404976988,146.25470977407082L233.7707934536252,146.28187886821223L233.85430561799836,146.2693198551737L233.92769509578082,146.2819614879346L233.97577785708657,146.27061899465772L234.04663666322136,146.2649356108672L234.43129875366736,146.2669820791277L234.9070650234296,146.27635428504286L235.37523927824873,146.32003782977296L236.50644950475777,146.34000083950227L237.12140271514187,146.40322548124746L238.0931806278476,146.45954960450055L238.26526629988922,146.46645315808328L238.55376286772372,146.5023276235705L238.9434863014651,146.53134449520263L239.11304130185906,146.52922861766976L240.57323884256533,146.5371251814562L240.58083085750835,146.5358638630191L240.77063123108368,146.56936704587056L240.96802361960204,146.54283468738117L241.40836048629683,146.52013042593694L242.2713195181527,146.55069725182497L242.28650354803875,146.55013113561117L242.4560585484327,146.5628607832003L242.68128832507543,146.56281740565612L242.7167177281428,146.562457826115L242.87615004194612,146.5688812970247L243.16970795307597,146.59056295658073L243.53159399869295,146.5899124924758L244.2553660899269,146.5996796258898L244.31357153782335,146.60409823007734L244.33634758265237,146.60433896227235L244.54639332940909,146.61054169200625L244.85766594207266,146.62583222016426L245.09554907695374,146.63507883149416L245.10567176354442,146.63340395181183L245.1942452712129,146.6419650365758L245.3081254953581,146.65597193680222L245.7307476605192,146.6796608311308L246.32039415442657,146.73035426472472L246.348231542551,146.7321500799864L246.43680505021948,146.73355056428693L247.29976408207534,146.78275547866772L247.91471729245944,146.8012739637703L248.21839789017997,146.83091254996722L248.43350498023204,146.83610994028922L249.49385640060626,146.85161997190912L250.86294976199636,146.93025042813025L250.9996060309706,146.9212461211555L251.2906332704528,146.92162481451334L251.77905289845333,146.95474650810635L251.96126125708565,146.941469401058L252.4395581984955,146.9610575525144L252.73311610962537,146.96144452902573L252.82168961729386,146.96504201278432L253.1861063345585,146.94529313763752L253.2468424541026,146.94095911568226L253.71754738056944,146.9792745228863L253.74032342539851,146.98703555728235L254.05665738135738,146.98718522243954L254.07690275453876,146.98649735467853L254.15029223232122,146.97854569581807L254.3173165610675,146.9775768490946L254.42866611356504,146.96934179587439L255.43081208604283,146.99610774664973L255.9015170125097,147.02345040396048L256.999828507599,147.0815455580675L257.33387716509156,147.07713117968137L257.3946132846357,147.07225538892703L257.96148373371403,147.06988196410003L258.0475265697348,147.07454829346528L258.138630749051,147.08568358818897L258.18165216706143,147.0835022004713L258.4549647050099,147.10474849497328L259.13571537823344,147.1336630425442L259.37865985640985,147.1433743658516L259.6949938123688,147.1585409889565L260.04169582809976,147.16610650927376L260.04422649974737,147.1637748418822L260.1226773208252,147.17536771885585L260.56807553081535,147.20144434116668L260.9046548599556,147.1939134996381L261.0084123975101,147.1925971065894L261.37535978642245,147.20656015160336L261.48670933892,147.21458877896586L261.9827209818635,147.23255415108295L262.3471376991282,147.26889950960873L262.55718344588485,147.2916006800855L262.8684560585484,147.2895128649712L262.95702956621693,147.30354449183946L263.4505105375128,147.30982560227224L263.8073352398344,147.30139082133763L263.86047934443553,147.30256238923795L264.49061658470566,147.3237589259425L264.7487450927681,147.32393904553822L265.05242569048863,147.32396925085848L265.1713672579292,147.3163898021365L265.2169193475873,147.31215158068363L265.49529322883114,147.33171260519683L266.15073718557795,147.38741887007467L266.2519640514848,147.38153276950928L266.3228228576196,147.39131192837127L266.9377760680037,147.40743137105497L267.097208381807,147.41928314825728L267.35280621822176,147.43434587993195L268.1980505485439,147.4714721066242L268.4916084596738,147.48531657534633L268.5751206240469,147.4940991970593L269.0610095803998,147.5016821731415L269.09137764017186,147.5036140364403L269.3241994317576,147.5337517357408L269.3950582378924,147.54850532381784L269.53171450686665,147.5562701061065L269.8151497314058,147.5679822202977L270.13654503066005,147.55463707370092L271.3462060782469,147.57193703462923L272.2116957817504,147.59879859076307L272.23447182657947,147.60506788784585L272.55586712583374,147.62067985603764L272.9278758580414,147.6304541791657L273.07718548525395,147.6287306789382L273.11008421667367,147.62868221532943L273.469439590643,162.2737897572753L273.91483780063317,150.33608676253237L274.38554272709996,155.03712883936655L275.22825638577444,154.78092689852215L275.9925192233712,155.309865364025L276.04819399961997,154.9889484565232L276.55685900080186,154.79126984288212L276.78461944909225,154.2115827568972L276.79221146403523,154.15682553120254L277.09083071846044,153.85469124410898L277.3464285548753,153.89153234700723L277.9335443771349,153.83231896890754L278.72058325956067,153.4671293804286L278.8066260955815,153.40442595901925L279.40133393278427,153.17302503622682L279.7151372170955,153.4569147625992L279.72779057533387,153.40942723377225L279.83914012783134,153.23544967787709L280.3174370692412,153.05217679492236L280.8868381899672,153.37833891284646L281.5549355049524,153.00184603816385L281.77257326665216,152.93324187586924L282.843047373617,153.00741161345073L283.37701909127566,152.6405538364099L283.6224942410998,152.61025531879875L283.8426626744471,152.6888284442384L283.90339879399124,152.72973606130395L284.2829995411419,152.88872039273926L284.49557595954633,152.95019933368815L284.9814649158992,152.89328600756988L285.2927375285628,152.77547039952015L285.48000723049046,152.77658967147588L285.77862648491566,152.6218320712736L286.0367549929781,152.58746684312908L286.23161670984877,152.65822309904078L286.2974141726882,152.64409992856247L286.8288552186992,152.67526800370072L287.1679652194871,152.67977438964704L287.291968130223,152.72488241957046L287.3678882796531,152.72455106321834L287.4438084290833,152.7603964063107L288.07900701264873,152.71976719215525L288.3346048490635,152.67254442607194L288.4712611180378,152.62416572998987L288.98245679086733,152.65421053008015L289.1975638809194,152.62052994757804L290.3895102269725,152.48287093397028L291.3714108262689,152.32970070982225L291.7282355285905,152.14779033307838L291.771256946601,152.1457340814374L291.8117476929637,152.14680084620827L293.1757797110585,152.17510489832546L293.36051874133847,152.16994819923502L294.4740142663138,152.1200118461734L294.7422654609669,152.06470558058518L295.73175807520636,152.25445639001737L296.09364412082334,152.1932682300161L296.18980964343484,152.25362964526687L296.2125856882639,152.27183268008125L296.37454867371486,152.29427724217786L296.56687971893786,152.2484071899955L296.57447173388084,152.2495529392704L296.6149624802436,152.28266307215398L297.00468591398493,152.37925220972255L297.13881151131153,152.36953903061803L297.3766946461926,152.33336911390785L297.7183353186282,152.35766267083676L298.0169545730534,152.3094549037887L298.59394770872245,152.2918019791318L299.20890091910655,152.3159800131323L299.5252348750655,152.23959441244057L300.10982002567755,152.30535727892988L300.2996203992529,152.36683402301273L300.3299884590249,152.3592448968612L301.2157235357098,152.4791745772218L301.9319036120008,152.45478395257584L301.9648023434205,152.44953559723115L302.00276241813555,152.44342740472024L302.2178695081876,152.51232204718957L302.53926480744184,152.54308772382618L303.4123465258884,152.51721139225674L303.57684018298704,152.51055039876624L303.74892585502863,152.53800447419084L304.1513026470084,152.52540721344383L304.6397222750089,152.55782948294404L304.662498319838,152.55338849461282L305.3457796647092,152.57282492438426L306.6035234736018,152.54370589344828L307.11724981807896,152.55061302555546L307.2311300422242,152.56957088842145L307.9397181035721,152.51596836572995L308.6761435530445,152.56836752494655L308.7672477323606,152.5624814021969L309.30121945001923,152.51420696964146L309.3796702710971,152.53733120611298L309.38473161439236,152.53933295631822L310.45014437806196,152.54866201186468L310.480512437834,152.55290089847085L310.5336565424351,152.52765313757192L310.56402460220716,152.5301812032567L310.79431572214526,152.55104854857686L311.042321543617,152.54107329340562L311.37130885781426,152.5686964407539L311.3839622160526,152.56746964947666L311.5433945298559,152.60429389956622L311.7433175900219,152.62841853282782L311.8799738589962,152.64128740093003L311.9558940084263,152.62518135305478L312.10014229234355,152.63240907286342L312.6265219950592,152.65431594602876L313.55021714645915,152.7250340678731L313.6236066242416,152.73218588901716L314.0183914012783,152.75058476024424L316.07582745083494,152.83597930532932L316.15174760026514,152.83219960918964L316.4225294665659,152.8015484666889L316.44530551139496,152.79881051895111L316.6097991684936,152.79016195591166L316.645228571561,152.79134909362722L316.7262100642865,152.80504290867262L318.3559626053867,152.771873984719L318.5584163372004,152.76553457151073L319.43909007059,152.84202080226086L319.92750969859054,152.87064066367586L320.59307634192805,152.97088720233924L320.99545313390774,152.98660826356544L321.1447627611204,153.00473893430987L321.44591268719324,153.00690623665145L323.28064963175484,153.0450933433972L323.3439164229466,153.04316326257882L323.87282679730987,153.01886741903638L324.04238179770385,153.00010386973835L324.66492702303094,153.0639004167705L324.78892993376684,153.08476676133552L324.99391433722826,153.09734521899665L325.2039600839849,153.1306816129704L325.44690456216136,153.13594176250123L325.69491038363316,153.1240910774547L325.8467506824934,153.12352015025402L325.8695267273224,153.12432593630672L325.8720573989701,153.1262282687117L325.973284264877,153.11906776337048L326.1605539668046,153.1321578635165L326.50219463924026,153.13210027951914L326.8615500132095,153.1259059423799L327.50687128336574,153.13399111134603L327.6460582239876,153.126017106143L327.9522694933558,153.14881119730936L328.0762724040917,153.14421081752542L328.63302016657934,153.1450762028691L328.82788188345006,153.18922212709734L328.8531885999268,153.1933029333821L329.11637845128456,153.21067454414325L330.4222050214829,153.26823762628885L331.27504136674804,153.2816929514425L331.5584765912873,153.298939437049L332.84658845995193,153.38124469380966L333.01108211705053,153.3986466202579L333.96514532822255,153.4723942151568L334.10180159719675,153.46185224925134L335.0153740620061,153.46323984779423L335.44558824211015,153.49353478315166L335.5746524961414,153.4755940134665L335.82771966090854,153.46999605146382L336.34144600538576,153.46950325171613L336.4198968264636,153.46059657389335L336.64512660310635,153.48307461663208L337.9357691434186,153.5129554694103L338.4090047415332,153.55405555715856L338.6291731748805,153.5604454980391L339.7907514611616,153.58288471339537L339.92487705848816,153.58715523096808L340.1475761634833,153.5863386793432L340.26904840257146,153.59887075732956L340.58538235853035,153.61317797460057L340.92449235931826,153.59720043473865L341.4407493754432,153.6244797313617L341.55462959958845,153.63148938993487L341.92157698850076,153.6258583482883L342.3669751984908,153.6400304208105L342.450487362864,153.64826531314213L342.6529410946777,153.62476926889315L343.0300111701807,153.6261595344185L343.3868358725024,153.65263956677262L343.7892126644821,153.676831959742L343.8474181123785,153.6691588493623L343.8853781870936,153.67697793282846L343.8955008736843,153.67735194323268L344.42441124804753,153.6923380371047L344.4522486361719,153.69529821795732L344.4876780392393,153.69340433710727L344.7255611741204,153.68786556160643L344.84703341320864,153.68917719094478L344.87487080133303,153.68612159331144L345.0191190852503,153.69428138845373L345.13552998104313,153.6820837947446L346.2464948343708,153.71602092085578L346.3780897600497,153.71506161940275L347.5295453597401,153.70007358161726L348.00278095785455,153.69658264261292L348.445648496197,153.7454954492821L348.592427451762,153.7359520966492L349.1795432740216,153.7524028826057L349.3997117073691,153.7643222754723L350.2348333511006,153.76632136395352L350.49043118751536,153.76848942355232L350.862439919723,153.79834556961094L351.401472980677,153.78424216944936L351.89495395197287,153.78874882381317L351.9303833550403,153.78492738376366L352.55292858036734,153.82008805051078L352.97555074552844,153.7955458770739L354.3243987337372,153.81611475303387L354.38007350998595,153.82579581178905L355.05576283991417,153.86055856105258L355.27846194490917,153.87917758418902L355.8377403790446,153.87235204208315L356.20215709630924,153.88120714711806L356.40967217141826,153.89333530306095L356.4223255296566,153.89445009036217L356.827232993284,153.91090756280565L357.19164971054863,153.9379714728039L357.48520762167846,153.95571575352142L357.5560664278133,153.94777256797923L357.61174120406207,153.95533664345245L358.0039953094511,153.98717203330907L358.4873535941563,154.013279482946L358.83152493823957,154.0342224656626L359.0845921030067,154.0444250240297L359.80583352259293,154.06863287416493L360.0411859858264,154.07753036343684L360.2082103145727,154.0795935861134L360.5068295689979,154.07092465903435L361.26856173494696,154.1084647308899L362.19731822964224,154.1063351927646L363.1539121124619,154.15625556421446L363.32599778450356,154.16106879299514L363.3386511427419,154.16239751574494L363.39938726228604,154.1603966443615L363.4803687550115,154.1578137445194L364.2623462941419,154.18619726587502L365.9528349547862,155.34141880974187L366.1046752536466,155.61526863812458L366.8284473448805,154.93271404339836L366.97775697209306,155.0778522129205L367.5952408541249,155.07491250474237L367.71671309321306,155.03639067787486L368.04316973576266,155.01460160664985L368.56954943847825,156.0853587030029L368.92890481244757,156.01454290583473L368.9339661557429,156.02631343562484L369.17691063391936,155.72876546022792L369.6020634707281,155.22394602500117L370.1638725765111,155.66100575067173L370.18917929298783,155.59206208107452L370.7054363091127,155.82508628211733L371.22928534018064,156.03379930658997L371.234346683476,156.04613244247636L371.40643235551767,156.22175021539897L371.75060369960096,156.10224690415578L371.83158519232643,156.16142841106503L371.98848683448205,156.35915854688943L371.9986095210727,156.37048807860023L372.25167668583987,156.267670082858L372.69960556747765,156.4718980072942L372.75021900043106,156.5620846752177L372.82613914986115,156.47637615358894L372.95267273224476,156.47671920267555L373.112105046048,156.55598978556563L373.2006785537165,156.5723541974445L373.2057398970119,156.5766512307254L374.5090357955625,157.01599750640548L374.6406307212414,157.12241044551251L374.6937748258425,157.12598989754204L374.73173490055757,157.12477245024903L375.1796637821954,157.1802376660045L375.82498505235156,157.19749839329302L375.8857211718957,157.17099306684898L376.3184660236474,157.18122434374385L376.41463154625893,157.1692422741366L376.48295968074603,157.14997853926542L376.73602684551315,157.1167926940301L376.93341923403153,157.14920643075976L377.19660908538935,157.1939903420633L377.24975318999043,157.17495252088355L377.2522838616381,157.1793342905316L378.7580334920024,157.29897167452205L378.8491376713186,157.36220278624293L379.0946128211427,157.4099460717007L379.2084930452879,157.43903351281006L379.24139177670764,157.45016356353318L379.62605386715364,157.48434481149008L379.90442774839744,157.510870213063L380.33970327179696,157.55376999299943L380.3523566300353,157.54911418067L380.49407424230486,157.58716452386128L381.4911588714873,157.61710593164932L381.6101004389279,157.59317906169943L381.94414909642046,157.71200769269893L381.9643944696018,157.71957928761648L382.47305947078377,157.62872479050742L382.5616329784522,157.66195682621233L382.94376439725056,157.80379252211688L382.97919380031794,157.7842992659331L383.31324245781053,157.71342378945923L383.90288895171796,157.68744941751368L384.3406951467651,157.73496047890504L384.3989005946615,157.7783040461533L384.4368606693766,157.79583573726893L384.77850134181216,157.69670325520627L385.5781935824763,157.7747684457069L386.0691438821245,157.8632945496301L386.0919199269535,157.85504046219117L386.18049343462195,157.88262785504597L386.74736388370036,157.89184096247325L387.15480201897543,157.9147875395723L387.281335601359,157.91796021939385L387.5419947810691,157.95059840503436L387.7773472443025,157.94025461309448L388.45556724587834,157.93047417188313L388.9642322470603,157.9878275781763L389.66522829346525,157.95830151208477L390.23209874254354,157.9428482873031L391.0115456100263,157.9523873829857L391.63662150700105,157.88946043876945L392.23892135914684,157.84521525916765L392.5248872553337,157.8091404152662L392.8766506143599,157.74493204140413L392.9955921818005,157.75178386739472L393.1449018090131,157.75966462360867L393.1980459136142,157.7444138840742L393.3473555408268,157.71644068027916L393.5118491979254,157.7042074605817L394.2052532293873,157.82181361133286L394.44819770756374,157.81806550393046L395.0327828581758,157.81696678489507L395.161847112207,157.86715684768083L395.26054330646616,157.85956311567284L395.37695420225907,157.86834255467258L395.39466890379276,157.85964373040693L395.44781300839384,157.8547668070685L395.4554050233369,157.85643234940045L395.8324750988399,157.8360654069005L396.17158509962786,157.87887763914787L396.20701450269524,157.8743879396954L396.47779636899605,157.92990175624323L396.7561702502399,157.88178114030362L396.7789462950689,157.88111313389408L396.8877651759188,157.88444918474156L397.0117680866546,157.8885492815914L397.44957428170176,157.9240614681675L397.86207376027215,157.9632482292348L397.91015652157796,157.96105483204872L398.3504933882727,157.9805610379093L398.45425092582724,157.96677551294655L398.532701746905,157.9739230252543L398.6440512994026,157.98554723537097L399.66138130176637,158.0427595503709L399.7777921975593,158.0418640088197L399.995429959259,158.02892498787585L400.24343578073075,158.02611994513947L400.3699693631143,158.0331501817715L400.37250003476197,158.03197715265586L400.6964260056639,158.06001487215138L401.1367628723587,158.04440521315522L401.8326975754682,158.037676646082L402.2831571287537,158.08167970193813L403.1587695188479,158.11108388370408L403.4295513851487,158.1168453768749L403.4801648181022,158.14492531819764L403.7408239978123,158.15006360423675L403.81674414724245,158.15571462927264L404.35830787984406,158.1158110384678L405.4945794496484,158.11700290875584L405.56543825578325,158.1249060337119L406.0994099734418,158.08934295370267L406.1727994512243,158.09662107696573L406.6131363179191,158.1607524225703L406.8004060198467,158.18270187818135L406.8054673631421,158.17674773355003L407.42295124517386,158.25189356982847L407.668426394998,158.21537352193488L407.72916251454205,158.21782547489425L407.75953057431417,158.23679177109221L408.0581498287394,158.21294080275828L408.5136707253202,158.17382968855648L408.5541614716829,158.1765018740529L409.49557132461655,158.2041844342087L409.5183473694456,158.19946172310907L410.7583764768045,158.1870750095161L410.9760142385042,158.16985229481494L411.0569957312297,158.1691188283188L411.9351387929716,158.1461866340319L412.07685640524113,158.14789236843225L412.30461685353157,158.12883920848816L412.54249998841266,158.15502226185308L412.9195700639157,158.1648804555689L413.0663490194806,158.14991242943293L413.50921655782304,158.14385435317777L413.5901980505485,158.1470093844801L413.9444920812225,158.1473604964548L414.2836020820104,158.13676065849558L414.5138932019485,158.1640657594616L414.81504312802144,158.18962251142878L415.3287694724986,158.22064901809293L415.6678794732866,158.2476042054626L415.95637604112113,158.27429894938248L416.0626642503233,158.2762979480399L416.2524646238986,158.2785196763928L416.30054738520437,158.2798143510333L416.4549183557123,158.27648703193142L416.7206388787178,158.28632280157913L417.43681895500873,158.33463616483968L417.8619717918175,158.36986265706437L418.1757750761287,158.38860050920107L419.1779210486065,158.42497265139744L419.7043007513221,158.43505237576244L420.0484720954054,158.45583878964874L420.3698673946596,158.45689383272097L420.7013853805045,158.48021891244474L421.1240075456657,158.48137189183032L421.5592830690651,158.47855499521478L421.59977381542785,158.47823172926144L422.1970123242782,158.53185518420534L423.1232381473259,158.61800287365506L423.3484679239686,158.62462258010515L423.70276195464254,158.62629073318487L424.145629492985,158.60603324761803L424.5733130014414,158.62295561871684L424.7099692704157,158.6196901629874L425.046548599556,158.63358728475245L425.19585822676856,158.6413899086221L425.69946188465514,158.64853680606288L425.8766088999921,158.66107558003878L426.09677733333956,158.67048138237422L426.26380166208577,158.66791578805794L426.362497856345,158.67184388948422L426.5573595732157,158.66895167682046L426.61303434946444,158.65781250970736L426.73703726020034,158.65155968586242L426.8129574096304,158.66319582356337L427.02553382803484,158.69193383460077L427.2583556196206,158.69527479767305L427.87583950165237,158.7275117593935L428.5996115928863,158.7178041474995L428.6375716676014,158.71916584279214L428.7590439066896,158.7289172229142L428.88051614577785,158.74751635805146L429.04500980287645,158.75071980405096L430.6823543589197,158.7882574462429L431.7857271973043,158.7511131963795L431.84899398849615,158.75539009352917L431.8667086900298,158.7545836557825L432.1906346609317,158.76437904931933L432.37031234791635,158.77619408533553L432.9928575732435,158.80530232055983L433.1927806334095,158.80257075259507L433.3142528724977,158.8111708979265L433.7571204108402,158.79490031221553L434.3923189944056,158.83110157383882L434.89339198064454,158.83560784022373L435.1312751155256,158.8311856237825L435.31095280251026,158.79888499899025L435.65512414659355,158.793977067564L435.84998586346427,158.78354332570842L435.9436207144281,158.7748847584854L437.02674817963134,158.85669824274666L437.45949303138315,158.86355160989163L437.67460012143516,158.86486694380676L438.345228108068,158.87581269131996L438.85389310924995,158.89851340814374L439.42076355832825,158.94232994086903L439.59284923036995,158.93394943398715L439.88893781314744,158.95501630010799L440.85312371091015,158.99335438892047L441.2276631147655,158.99051830678883L441.55665042896277,158.98792381162284L441.68824535464165,158.98622456794115L441.7818802056055,158.9920610487101L441.80212557878684,158.98900924216937L441.8198402803206,158.98402827766938L442.09315281826906,158.97895714211964L443.0573387160318,158.99937063646146L443.1130134922805,159.0064521927212L443.2547311045501,159.01188673752551L443.3812646869337,159.00982327853342L443.6849452846542,159.02280689021308L443.93042043447826,159.03227747663686L444.07719939004323,159.04770731023316L444.18348759924544,159.0471344351713L444.2897758084476,159.04241777520414L444.9755878249665,159.08480825170173L446.0561846185221,159.116533527876L446.0992060365325,159.11256005253495L446.85334618753853,159.10869796395926L448.2072555190426,159.1613547698283L448.2553382803483,159.16812953475016L448.68302178880475,159.18389088353155L449.18915611833904,159.16254842087304L449.4346312681631,159.15586594311577L450.3507344046201,159.18233379009598L450.49245201688973,159.1975369080453L451.23140813800967,159.20995628456825L451.406024481699,159.20874015909766L451.5452114223209,159.19630825670578L451.73501179589624,159.19959047800748L452.0108550054924,159.18897432738027L452.1095511997516,159.18602058455235L452.22090075224907,159.1829116329195L452.8788753806436,159.19284639289228L453.0737370975143,159.2029055953305L453.1926786649548,159.20158155320448L453.29137485921405,159.2099040240972L453.5570953822195,159.22851763433889L453.9442881443132,159.2359869564586L454.3011128466348,159.26674077404988L454.9388421018479,159.26809506573954L455.3791789685427,159.28429069803025L455.63477680495754,159.28968071235175L455.89037464137226,159.2947749676924L456.86974456902107,161.74902724271783L457.0721983008347,161.28114397687386L457.48469777940517,160.81408982825525L457.9376880043383,160.92462775111218L458.00095479553005,161.1248519833702L458.09712031814155,161.04917799022937L458.324880766432,161.35711376087895L458.4893744235306,161.02835700517767L458.83860711090927,160.78075977352836L459.13975703698213,161.57865149600826L459.56744054543856,161.32916091181482L459.6155233067443,161.41015005578586L459.6458913665163,161.42307181400466L460.9213498769426,161.3733722862363L461.3389106988084,161.5714920424817L461.3616867436374,161.59039960711698L461.9918239839075,161.98777039700406L462.1512562977108,161.76733630591363L462.457467567079,161.79198005996759L462.64220659735906,161.68366244202474L462.9610712249656,161.6910444092998L463.3912854050697,161.93443395507657L463.4899815993288,161.90614176628165L463.5481870472253,161.90390344165507L464.3402872729464,161.74454878932278L464.62625316913324,161.77277168133432L465.28928914082303,161.72892430409465L465.5372949622949,161.6542022348835L465.81060750024335,161.79406230105704L466.73177197999564,161.7423793300386L467.306234444017,161.67210223283988L467.6301604149189,161.7701358744386L468.0401292218416,161.6430475315514L468.2754816850751,161.59307909256634L468.6601437755211,161.66514418872296L468.76896265637095,161.73169171097064L469.19917683647503,161.74844659515324L469.4092225832318,161.8212476847896L469.7129031809523,161.7668631881584L469.7761699721441,161.75938998430985L469.95331698748106,161.78132994197992L470.0469518384449,161.75110332225623L470.06719721162625,161.75931770050516L470.42908325724324,161.75288043564404L470.6290063174093,161.79387141886153L470.92509490018676,161.81111958768963L471.34771706534787,161.85947103469283L471.5198027373895,161.83693420934344L471.65392833471606,161.7739251440624L471.66405102130676,161.78289295585313L471.7829925887473,161.76886520112095L472.0385904251621,161.6752365322574L472.554847441287,161.69429669849305L472.59027684435443,161.65660800376128L473.5165026674021,161.53897552145347L474.81979856595274,161.56121117856551L475.3512396119637,161.59514850303614L475.7915764786585,161.622177888257L476.03958230013023,161.68655695754302L476.9936455113023,161.6683914366383L477.11005640709516,161.66151317431647L477.4415743929401,161.6176937606551L477.4618197661215,161.616178525396L477.71488693088855,161.62623409030695L478.9878147696671,161.57667029044669L479.16496178500415,161.59534152368502L479.6989335026628,161.66941895247376L479.9089792494195,161.68288701859402L479.9418779808392,161.7021424825168L480.62262865406274,161.72421956579538L480.65046604218713,161.7080852144944L480.7036101467882,161.69913954505174L480.88075716212524,161.6955461478627L480.9845146996797,161.72430698510473L481.0123520878041,161.72036098512243L481.11357895371094,161.74683949868185L482.0069060453389,161.77335206061537L482.3358933595361,161.8593712723885L482.4396508970907,161.86036219319968L483.0596654507701,161.82440041436203L483.0748494806561,161.82929249230412L483.2165670929257,161.80317011939204L484.0086673186468,161.8166550115637L484.4439428420462,161.70654823099142L485.04118135089664,161.751580329263L485.22338970952893,161.78916354647905L485.5118862773635,161.83568268046992L486.19516762223464,161.856648114969L486.26602642836946,161.8484907278567L486.8177128475618,161.89107402506582L487.5389542671481,161.88166457840666L487.77177605873385,161.87475465870963L487.85781889475464,161.86212490448128L488.062803298216,161.82893556219392L489.51034748068395,161.8405324295729L489.81655875005214,161.80183509509214L489.9152549443113,161.80554674162894L490.03166584010415,161.79050920330027L490.4517573336176,161.83271275971936L492.2611875617025,161.94498374535024L493.281048235714,162.00744944850962L493.54423808707173,161.97721796746004L493.61256622155895,161.97785743601744L494.0554337599014,161.99614496728617L494.2553568200674,162.02972755646903L494.8298192840888,162.07545351774658L495.6219195098098,162.13972688476397L496.5709213776865,162.15691141641227L496.7025163033654,162.16895695223403L496.9252154083605,162.206187735829L496.94799145318956,162.21416130641504L497.14032249841256,162.21348185391383L497.1605678715939,162.21379609318052L497.18587458807065,162.21386694324502L497.4338804095424,162.20610731019102L498.0311189183928,162.19711445337805L498.05136429157415,162.21276982753926L498.4031276506005,162.23390278191488L498.62076541230016,162.21485065660883L498.8308111590569,162.20688283159072L499.0484489207566,162.21992366912372L499.07881698052864,162.2227833326583L499.4432336977933,162.22343625570306L500.05059489323435,162.25676908111382L500.16194444573193,162.2584138673696L500.19231250550393,162.26413224401617L500.28341668482017,162.26203493527643L500.76171362623,162.26984436956306L500.8401644473078,162.285407613174L501.49307773240696,162.33193904775874L501.59936594160916,162.33568072679134L501.8296570615472,162.35143501659144L502.0675401964283,162.36108139246912L502.816619004139,162.34472715672496L503.0190727359527,162.36269270623484L503.22152646776635,162.34643927311592L503.5100230356009,162.36410255196674L503.5378604237253,162.36143333533636L503.82635699155975,162.38935205459865L504.50710766478335,162.37375917661308L505.0765087855093,162.427993762746L505.7547287870852,162.4332734845667L505.9597131905466,162.46370425832814L506.0963694595209,162.47162808504225L506.84038692393614,162.4749653281813L507.3743586415948,162.45242602066224L507.4426867760819,162.4548647360926L508.2398483450983,162.463489459979L508.3258911811192,162.47732061362512L508.33854453935754,162.47758784959638L508.4625474500934,162.49604527633355L508.5182222263421,162.490346097316L509.15342080990763,162.4611369719965L509.45204006433283,162.46415966201505L510.24920163334923,162.395389815808L510.40863394715257,162.39321503213228L510.4921461115257,162.3883283615305L510.6288023804999,162.38756357025943L510.77811200771254,162.4110359627356L511.6942151441695,162.39211608771663L512.0611625330818,162.40315067228218L512.0889999212062,162.40656667599507L512.3699044740977,162.41808481682384L512.3774964890407,162.42354552412777L512.7039531315903,162.44588541664902L512.767219922782,162.47092463535762L513.2455168641919,162.48778729441517L513.5011147006066,162.50110337649258L514.1970494037163,162.52136612864692L514.8094719424527,162.5165112755756L516.0216636616873,162.5429215634347L516.1785653038428,162.54274853484952L516.3607736624751,162.55764230651096L517.3452049334192,162.58185187839015L517.8209712031814,162.61446248079463L517.8690539644872,162.61352022887425L518.3043294878867,162.61634841748815L518.6839302350373,162.62828513329728L518.8838532952033,162.6235640957813L519.2027179228099,162.65595289675406L519.4330090427479,162.64890502249688L520.0884529994947,162.64474768513008L520.6376087470394,162.68201043291705L522.3863028555802,162.69306526453133L522.950642633011,162.70132451392024L523.3099980069802,162.69814168001722L523.8945831575923,162.71805440164033L523.9603806204317,162.696349348197L525.0409774139873,162.6740848250215L525.1573883097802,162.66849762518444L525.3142899519358,162.672491589074L526.3113745811182,162.69173418857102L527.2072323443939,162.68669765336432L527.543811673534,162.68753518433107L527.6652839126223,162.70113036168888L527.8019401815966,162.69404525733466L528.2245623467576,162.68344978690834L528.8774756318568,162.69434483536196L529.5860636932048,162.6784320367606L529.7353733204174,162.67347626738965L530.0010938434228,162.6729462896638L530.1731795154644,162.67655066026586L530.5122895162524,162.68139939267223L530.9602183978902,162.7028415715826L531.061445263797,162.7120596848037L531.2917363837352,162.71348845496826L531.6915825040671,162.69811007638307L531.8712601910518,162.72102694317948L532.0256311615598,162.72058487757678L533.5895862398205,162.75540717463053L533.9211042256654,162.74825967227088L533.9261655689609,162.7501338695295L533.9717176586189,162.75430061319605L534.4778519881531,162.77082651394096L534.9915783326304,162.75703287710866L537.1477105764462,162.8214262934747L538.0334456531311,162.84411816363613L538.372555653919,162.8585549296948L538.3902703554528,162.85627419335438L538.4003930420434,162.8584032272346L538.4079850569865,162.8602973968164L538.5901934156187,162.86842612065294L538.7243190129453,162.8653429112463L538.8179538639092,162.86281227564444L539.1368184915158,162.86992596468403L539.6834435674127,162.86947243196303L539.8403452095683,162.8844323390599L540.1819858820039,162.8995478838178L541.12086506329,162.94844352074693L541.7231649154357,162.93186392999982L542.3457101407628,162.94123899923883L542.7050655147322,162.95628469312632L542.78351633581,162.95098410580766L542.9378873063179,162.9512656094441L543.9805240251584,162.98717525487967L543.9982387266921,162.98713973271322L544.114649622485,162.9797446873127L545.4255375359786,163.00285571481257L545.4483135808076,162.99927754573642L546,162.99443399225223" class="rv-xy-plot__series rv-xy-plot__series--line" transform="translate(34,5)" style="opacity: 1; stroke-width: 1.5; stroke: rgb(51, 141, 216);"/><g class="rv-xy-plot__series rv-xy-plot__series--mark" transform="translate(34,5)"><circle r="2" cx="546" cy="162.99443399225223" style="opacity: 1; stroke: rgb(51, 141, 216); fill: rgb(51, 141, 216); stroke-width: 1;"/></g><defs class="rv-gradient-defs"><linearGradient id="leftFadeGradient" x1="0" x2="1" y1="0" y2="0"><stop offset="0%" stop-color="white" stop-opacity="1"/><stop offset="60%" stop-color="white" stop-opacity="1"/><stop offset="100%" stop-color="white" stop-opacity="0"/></linearGradient><linearGradient id="rightFadeGradient" x1="1" x2="0" y1="0" y2="0"><stop offset="0%" stop-color="white" stop-opacity="1"/><stop offset="100%" stop-color="white" stop-opacity="0"/></linearGradient><linearGradient id="bottomFadeGradient" x1="0" x2="0" y1="1" y2="0"><stop offset="0%" stop-color="white" stop-opacity="1"/><stop offset="40%" stop-color="white" stop-opacity="1"/><stop offset="100%" stop-color="white" stop-opacity="0"/></linearGradient><linearGradient id="topFadeGradient" x1="0" x2="0" y1="0" y2="1"><stop offset="0%" stop-color="white" stop-opacity="1"/><stop offset="100%" stop-color="white" stop-opacity="0"/></linearGradient></defs><g class="rv-xy-plot__borders plot-border"><rect class="rv-xy-plot__borders-bottom plot-border-bottom" x="0" y="248" width="600" height="30" style="fill: url(&quot;#bottomFadeGradient&quot;); opacity: 1;"/><rect class="rv-xy-plot__borders-left plot-border-left" x="0" y="0" width="34" height="278" style="fill: url(&quot;#leftFadeGradient&quot;); opacity: 1;"/><rect class="rv-xy-plot__borders-right plot-border-right" x="580" y="0" width="20" height="278" style="fill: url(&quot;#rightFadeGradient&quot;); opacity: 1;"/><rect class="rv-xy-plot__borders-top plot-border-top" x="0" y="0" width="600" height="5" style="fill: url(&quot;#topFadeGradient&quot;); opacity: 1;"/></g><g transform="translate(34,248)" class="rv-xy-plot__axis rv-xy-plot__axis--horizontal"><line x1="0" x2="546" y1="0" y2="0" class="rv-xy-plot__axis__line"/><g transform="translate(0, 0)" class="rv-xy-plot__axis__ticks"/></g><g transform="translate(34,248)" class="rv-xy-plot__axis rv-xy-plot__axis--horizontal" style="font-family: &quot;Source Sans Pro&quot;; fill: rgb(107, 107, 118); font-size: 11px;"><line x1="0" x2="546" y1="0" y2="0" class="rv-xy-plot__axis__line" style="font-family: &quot;Source Sans Pro&quot;; fill: rgb(107, 107, 118); font-size: 11px; stroke-width: 0;"/><g transform="translate(0, 0)" class="rv-xy-plot__axis__ticks"><g transform="translate(125.99201865095733, 0)" class="rv-xy-plot__axis__tick" style="font-family: &quot;Source Sans Pro&quot;; fill: rgb(107, 107, 118); font-size: 11px;"><line x1="0" x2="0" y1="-6" y2="6" class="rv-xy-plot__axis__tick__line" style="font-family: &quot;Source Sans Pro&quot;; fill: rgb(107, 107, 118); font-size: 11px; stroke-width: 0;"/><text text-anchor="middle" dy="0.72em" transform="translate(0, 14)" class="rv-xy-plot__axis__tick__text" style="font-family: sans-serif; fill: rgb(107, 107, 118); font-size: 11px;">50k</text></g><g transform="translate(252.52560103451634, 0)" class="rv-xy-plot__axis__tick" style="font-family: &quot;Source Sans Pro&quot;; fill: rgb(107, 107, 118); font-size: 11px;"><line x1="0" x2="0" y1="-6" y2="6" class="rv-xy-plot__axis__tick__line" style="font-family: &quot;Source Sans Pro&quot;; fill: rgb(107, 107, 118); font-size: 11px; stroke-width: 0;"/><text text-anchor="middle" dy="0.72em" transform="translate(0, 14)" class="rv-xy-plot__axis__tick__text" style="font-family: sans-serif; fill: rgb(107, 107, 118); font-size: 11px;">100k</text></g><g transform="translate(379.0591834180753, 0)" class="rv-xy-plot__axis__tick" style="font-family: &quot;Source Sans Pro&quot;; fill: rgb(107, 107, 118); font-size: 11px;"><line x1="0" x2="0" y1="-6" y2="6" class="rv-xy-plot__axis__tick__line" style="font-family: &quot;Source Sans Pro&quot;; fill: rgb(107, 107, 118); font-size: 11px; stroke-width: 0;"/><text text-anchor="middle" dy="0.72em" transform="translate(0, 14)" class="rv-xy-plot__axis__tick__text" style="font-family: sans-serif; fill: rgb(107, 107, 118); font-size: 11px;">150k</text></g><g transform="translate(505.5927658016343, 0)" class="rv-xy-plot__axis__tick" style="font-family: &quot;Source Sans Pro&quot;; fill: rgb(107, 107, 118); font-size: 11px;"><line x1="0" x2="0" y1="-6" y2="6" class="rv-xy-plot__axis__tick__line" style="font-family: &quot;Source Sans Pro&quot;; fill: rgb(107, 107, 118); font-size: 11px; stroke-width: 0;"/><text text-anchor="middle" dy="0.72em" transform="translate(0, 14)" class="rv-xy-plot__axis__tick__text" style="font-family: sans-serif; fill: rgb(107, 107, 118); font-size: 11px;">200k</text></g></g><g transform="translate(0, 0)" class="rv-xy-plot__axis__title"><g transform="translate(540, -6) rotate(0)" style="text-anchor: end; font-family: &quot;Source Sans Pro&quot;; fill: rgb(107, 107, 118); font-size: 11px;"><text style="font-family: sans-serif; fill: rgb(107, 107, 118); font-size: 11px;">Step</text></g></g></g><g transform="translate(34,248)" class="rv-xy-plot__axis rv-xy-plot__axis--horizontal"><line x1="0" x2="0" y1="0" y2="0" class="rv-xy-plot__axis__line"/><g transform="translate(0, 0)" class="rv-xy-plot__axis__ticks"><g transform="translate(125.99201865095733, 0)" class="rv-xy-plot__axis__tick"><line x1="0" x2="0" y1="-6" y2="6" class="rv-xy-plot__axis__tick__line"/><text text-anchor="middle" dy="0.72em" transform="translate(0, 14)" class="rv-xy-plot__axis__tick__text" style="font-family: sans-serif;"/></g><g transform="translate(252.52560103451634, 0)" class="rv-xy-plot__axis__tick"><line x1="0" x2="0" y1="-6" y2="6" class="rv-xy-plot__axis__tick__line"/><text text-anchor="middle" dy="0.72em" transform="translate(0, 14)" class="rv-xy-plot__axis__tick__text" style="font-family: sans-serif;"/></g><g transform="translate(379.0591834180753, 0)" class="rv-xy-plot__axis__tick"><line x1="0" x2="0" y1="-6" y2="6" class="rv-xy-plot__axis__tick__line"/><text text-anchor="middle" dy="0.72em" transform="translate(0, 14)" class="rv-xy-plot__axis__tick__text" style="font-family: sans-serif;"/></g><g transform="translate(505.5927658016343, 0)" class="rv-xy-plot__axis__tick"><line x1="0" x2="0" y1="-6" y2="6" class="rv-xy-plot__axis__tick__line"/><text text-anchor="middle" dy="0.72em" transform="translate(0, 14)" class="rv-xy-plot__axis__tick__text" style="font-family: sans-serif;"/></g></g></g><g transform="translate(0,5)" class="rv-xy-plot__axis rv-xy-plot__axis--vertical" style="font-family: &quot;Source Sans Pro&quot;; fill: rgb(107, 107, 118); font-size: 11px;"><line x1="34" x2="34" y1="0" y2="243" class="rv-xy-plot__axis__line" style="font-family: &quot;Source Sans Pro&quot;; fill: rgb(107, 107, 118); font-size: 11px; stroke: none;"/><g transform="translate(34, 0)" class="rv-xy-plot__axis__ticks"><g transform="translate(0, 243)" class="rv-xy-plot__axis__tick" style="font-family: &quot;Source Sans Pro&quot;; fill: rgb(107, 107, 118); font-size: 11px;"><line y1="0" y2="0" x1="6" x2="-6" class="rv-xy-plot__axis__tick__line" style="font-family: &quot;Source Sans Pro&quot;; fill: rgb(107, 107, 118); font-size: 11px; stroke: none;"/><text text-anchor="end" dy="0.32em" transform="translate(-14, 0)" class="rv-xy-plot__axis__tick__text" style="font-family: sans-serif; fill: rgb(107, 107, 118); font-size: 11px;">0</text></g><g transform="translate(0, 198.77316210951997)" class="rv-xy-plot__axis__tick" style="font-family: &quot;Source Sans Pro&quot;; fill: rgb(107, 107, 118); font-size: 11px;"><line y1="0" y2="0" x1="6" x2="-6" class="rv-xy-plot__axis__tick__line" style="font-family: &quot;Source Sans Pro&quot;; fill: rgb(107, 107, 118); font-size: 11px; stroke: none;"/><text text-anchor="end" dy="0.32em" transform="translate(-14, 0)" class="rv-xy-plot__axis__tick__text" style="font-family: sans-serif; fill: rgb(107, 107, 118); font-size: 11px;">0.2</text></g><g transform="translate(0, 154.54632421903995)" class="rv-xy-plot__axis__tick" style="font-family: &quot;Source Sans Pro&quot;; fill: rgb(107, 107, 118); font-size: 11px;"><line y1="0" y2="0" x1="6" x2="-6" class="rv-xy-plot__axis__tick__line" style="font-family: &quot;Source Sans Pro&quot;; fill: rgb(107, 107, 118); font-size: 11px; stroke: none;"/><text text-anchor="end" dy="0.32em" transform="translate(-14, 0)" class="rv-xy-plot__axis__tick__text" style="font-family: sans-serif; fill: rgb(107, 107, 118); font-size: 11px;">0.4</text></g><g transform="translate(0, 110.31948632855996)" class="rv-xy-plot__axis__tick" style="font-family: &quot;Source Sans Pro&quot;; fill: rgb(107, 107, 118); font-size: 11px;"><line y1="0" y2="0" x1="6" x2="-6" class="rv-xy-plot__axis__tick__line" style="font-family: &quot;Source Sans Pro&quot;; fill: rgb(107, 107, 118); font-size: 11px; stroke: none;"/><text text-anchor="end" dy="0.32em" transform="translate(-14, 0)" class="rv-xy-plot__axis__tick__text" style="font-family: sans-serif; fill: rgb(107, 107, 118); font-size: 11px;">0.6</text></g><g transform="translate(0, 66.09264843807993)" class="rv-xy-plot__axis__tick" style="font-family: &quot;Source Sans Pro&quot;; fill: rgb(107, 107, 118); font-size: 11px;"><line y1="0" y2="0" x1="6" x2="-6" class="rv-xy-plot__axis__tick__line" style="font-family: &quot;Source Sans Pro&quot;; fill: rgb(107, 107, 118); font-size: 11px; stroke: none;"/><text text-anchor="end" dy="0.32em" transform="translate(-14, 0)" class="rv-xy-plot__axis__tick__text" style="font-family: sans-serif; fill: rgb(107, 107, 118); font-size: 11px;">0.8</text></g><g transform="translate(0, 21.86581054759994)" class="rv-xy-plot__axis__tick" style="font-family: &quot;Source Sans Pro&quot;; fill: rgb(107, 107, 118); font-size: 11px;"><line y1="0" y2="0" x1="6" x2="-6" class="rv-xy-plot__axis__tick__line" style="font-family: &quot;Source Sans Pro&quot;; fill: rgb(107, 107, 118); font-size: 11px; stroke: none;"/><text text-anchor="end" dy="0.32em" transform="translate(-14, 0)" class="rv-xy-plot__axis__tick__text" style="font-family: sans-serif; fill: rgb(107, 107, 118); font-size: 11px;">1</text></g></g></g></svg></g><style xmlns="http://www.w3.org/1999/xhtml">/*&lt;![CDATA[*/<br />text { font-size: 10px; fill: black }<br />.react-vis-magic-css-import-rule{display:inherit}.rv-treemap{font-size:12px;position:relative}.rv-treemap__leaf{overflow:hidden;position:absolute}.rv-treemap__leaf--circle{align-items:center;border-radius:100%;display:flex;justify-content:center}.rv-treemap__leaf__content{overflow:hidden;padding:10px;text-overflow:ellipsis}.rv-xy-plot{color:#c3c3c3;position:relative}.rv-xy-plot canvas{pointer-events:none}.rv-xy-plot .rv-xy-canvas{pointer-events:none;position:absolute}.rv-xy-plot__inner{display:block}.rv-xy-plot__axis__line{fill:none;stroke-width:2px;stroke:#e6e6e9}.rv-xy-plot__axis__tick__line{stroke:#e6e6e9}.rv-xy-plot__axis__tick__text{fill:#6b6b76;font-size:11px}.rv-xy-plot__axis__title text{fill:#6b6b76;font-size:11px}.rv-xy-plot__grid-lines__line{stroke:#e6e6e9}.rv-xy-plot__circular-grid-lines__line{fill-opacity:0;stroke:#e6e6e9}.rv-xy-plot__series,.rv-xy-plot__series path{pointer-events:all}.rv-xy-plot__series--line{fill:none;stroke:#000;stroke-width:2px}.rv-crosshair{position:absolute;font-size:11px;pointer-events:none}.rv-crosshair__line{background:#47d3d9;width:1px}.rv-crosshair__inner{position:absolute;text-align:left;top:0}.rv-crosshair__inner__content{border-radius:4px;background:#3a3a48;color:#fff;font-size:12px;padding:7px 10px;box-shadow:0 2px 4px rgba(0,0,0,0.5)}.rv-crosshair__inner--left{right:4px}.rv-crosshair__inner--right{left:4px}.rv-crosshair__title{font-weight:bold;white-space:nowrap}.rv-crosshair__item{white-space:nowrap}.rv-hint{position:absolute;pointer-events:none}.rv-hint__content{border-radius:4px;padding:7px 10px;font-size:12px;background:#3a3a48;box-shadow:0 2px 4px rgba(0,0,0,0.5);color:#fff;text-align:left;white-space:nowrap}.rv-discrete-color-legend{box-sizing:border-box;overflow-y:auto;font-size:12px}.rv-discrete-color-legend.horizontal{white-space:nowrap}.rv-discrete-color-legend-item{color:#3a3a48;border-radius:1px;padding:9px 10px}.rv-discrete-color-legend-item.horizontal{display:inline-block}.rv-discrete-color-legend-item.horizontal .rv-discrete-color-legend-item__title{margin-left:0;display:block}.rv-discrete-color-legend-item__color{display:inline-block;vertical-align:middle;overflow:visible}.rv-discrete-color-legend-item__color__path{stroke:#dcdcdc;stroke-width:2px}.rv-discrete-color-legend-item__title{margin-left:10px}.rv-discrete-color-legend-item.disabled{color:#b8b8b8}.rv-discrete-color-legend-item.clickable{cursor:pointer}.rv-discrete-color-legend-item.clickable:hover{background:#f9f9f9}.rv-search-wrapper{display:flex;flex-direction:column}.rv-search-wrapper__form{flex:0}.rv-search-wrapper__form__input{width:100%;color:#a6a6a5;border:1px solid #e5e5e4;padding:7px 10px;font-size:12px;box-sizing:border-box;border-radius:2px;margin:0 0 9px;outline:0}.rv-search-wrapper__contents{flex:1;overflow:auto}.rv-continuous-color-legend{font-size:12px}.rv-continuous-color-legend .rv-gradient{height:4px;border-radius:2px;margin-bottom:5px}.rv-continuous-size-legend{font-size:12px}.rv-continuous-size-legend .rv-bubbles{text-align:justify;overflow:hidden;margin-bottom:5px;width:100%}.rv-continuous-size-legend .rv-bubble{background:#d8d9dc;display:inline-block;vertical-align:bottom}.rv-continuous-size-legend .rv-spacer{display:inline-block;font-size:0;line-height:0;width:100%}.rv-legend-titles{height:16px;position:relative}.rv-legend-titles__left,.rv-legend-titles__right,.rv-legend-titles__center{position:absolute;white-space:nowrap;overflow:hidden}.rv-legend-titles__center{display:block;text-align:center;width:100%}.rv-legend-titles__right{right:0}.rv-radial-chart .rv-xy-plot__series--label{pointer-events:none}<br /><br />/*]]&gt;*/</style></svg>